<mxfile host="Electron" agent="Mozilla/5.0 (Macintosh; Intel Mac OS X 10_15_7) AppleWebKit/537.36 (KHTML, like Gecko) draw.io/26.0.9 Chrome/128.0.6613.186 Electron/32.2.5 Safari/537.36" version="26.0.9">
  <diagram name="Page-0" id="fkaJqMSIgnrqb4BessSn">
    <mxGraphModel dx="1636" dy="907" grid="1" gridSize="10" guides="1" tooltips="1" connect="1" arrows="1" fold="1" page="1" pageScale="1" pageWidth="827" pageHeight="1169" math="0" shadow="0">
      <root>
        <mxCell id="0" />
        <mxCell id="1" parent="0" />
        <mxCell id="YbQOrl-EwVgUOmntBzL7-1" value="Software Development&#xa;Management Plan" style="ellipse;whiteSpace=wrap;html=1;fillColor=#dae8fc;strokeColor=#6c8ebf;fontSize=14;fontStyle=1" vertex="1" parent="1">
          <mxGeometry x="500" y="350" width="160" height="80" as="geometry" />
        </mxCell>
        <mxCell id="YbQOrl-EwVgUOmntBzL7-2" value="1. Foundation Building&#xa;- Technical capabilities&#xa;- Key metrics&#xa;- Project management tools" style="rounded=1;whiteSpace=wrap;html=1;fillColor=#d5e8d4;strokeColor=#82b366;align=left;spacingLeft=5;fontSize=12" vertex="1" parent="1">
          <mxGeometry x="200" y="200" width="160" height="80" as="geometry" />
        </mxCell>
        <mxCell id="YbQOrl-EwVgUOmntBzL7-3" value="2. Knowledge Architecture&#xa;- Knowledge sharing&#xa;- Documentation standards&#xa;- Version control" style="rounded=1;whiteSpace=wrap;html=1;fillColor=#d5e8d4;strokeColor=#82b366;align=left;spacingLeft=5;fontSize=12" vertex="1" parent="1">
          <mxGeometry x="400" y="150" width="160" height="80" as="geometry" />
        </mxCell>
        <mxCell id="YbQOrl-EwVgUOmntBzL7-4" value="3. Team Communication&#xa;- Async channels&#xa;- Decision protocols&#xa;- Check-in schedules" style="rounded=1;whiteSpace=wrap;html=1;fillColor=#d5e8d4;strokeColor=#82b366;align=left;spacingLeft=5;fontSize=12" vertex="1" parent="1">
          <mxGeometry x="600" y="150" width="160" height="80" as="geometry" />
        </mxCell>
        <mxCell id="YbQOrl-EwVgUOmntBzL7-5" value="4. Quality Assurance&#xa;- Code review process&#xa;- Testing protocols&#xa;- CI/CD pipelines" style="rounded=1;whiteSpace=wrap;html=1;fillColor=#d5e8d4;strokeColor=#82b366;align=left;spacingLeft=5;fontSize=12" vertex="1" parent="1">
          <mxGeometry x="800" y="200" width="160" height="80" as="geometry" />
        </mxCell>
        <mxCell id="YbQOrl-EwVgUOmntBzL7-6" value="5. Resource Optimization&#xa;- Critical tools&#xa;- Cost monitoring&#xa;- Resource allocation" style="rounded=1;whiteSpace=wrap;html=1;fillColor=#ffe6cc;strokeColor=#d79b00;align=left;spacingLeft=5;fontSize=12" vertex="1" parent="1">
          <mxGeometry x="200" y="500" width="160" height="80" as="geometry" />
        </mxCell>
        <mxCell id="YbQOrl-EwVgUOmntBzL7-7" value="6. Agile Process&#xa;- Sprint structure&#xa;- Kanban boards&#xa;- Velocity tracking" style="rounded=1;whiteSpace=wrap;html=1;fillColor=#ffe6cc;strokeColor=#d79b00;align=left;spacingLeft=5;fontSize=12" vertex="1" parent="1">
          <mxGeometry x="400" y="550" width="160" height="80" as="geometry" />
        </mxCell>
        <mxCell id="YbQOrl-EwVgUOmntBzL7-8" value="7. Risk Management&#xa;- Failure points&#xa;- Contingency plans&#xa;- Monitoring systems" style="rounded=1;whiteSpace=wrap;html=1;fillColor=#ffe6cc;strokeColor=#d79b00;align=left;spacingLeft=5;fontSize=12" vertex="1" parent="1">
          <mxGeometry x="600" y="550" width="160" height="80" as="geometry" />
        </mxCell>
        <mxCell id="YbQOrl-EwVgUOmntBzL7-9" value="8. Scaling Strategy&#xa;- Growth metrics&#xa;- Infrastructure scaling&#xa;- Team expansion" style="rounded=1;whiteSpace=wrap;html=1;fillColor=#ffe6cc;strokeColor=#d79b00;align=left;spacingLeft=5;fontSize=12" vertex="1" parent="1">
          <mxGeometry x="800" y="500" width="160" height="80" as="geometry" />
        </mxCell>
        <mxCell id="YbQOrl-EwVgUOmntBzL7-10" value="9. Innovation Pipeline&#xa;- Experimentation&#xa;- Innovation metrics&#xa;- Feedback system" style="rounded=1;whiteSpace=wrap;html=1;fillColor=#e1d5e7;strokeColor=#9673a6;align=left;spacingLeft=5;fontSize=12" vertex="1" parent="1">
          <mxGeometry x="300" y="350" width="160" height="80" as="geometry" />
        </mxCell>
        <mxCell id="YbQOrl-EwVgUOmntBzL7-11" value="10. Investment Readiness&#xa;- Technical docs&#xa;- Scalability proof&#xa;- Technical pitch" style="rounded=1;whiteSpace=wrap;html=1;fillColor=#e1d5e7;strokeColor=#9673a6;align=left;spacingLeft=5;fontSize=12" vertex="1" parent="1">
          <mxGeometry x="700" y="350" width="160" height="80" as="geometry" />
        </mxCell>
        <mxCell id="YbQOrl-EwVgUOmntBzL7-12" value="" style="endArrow=classic;html=1;exitX=1;exitY=0.5;entryX=0;entryY=0.5;" edge="1" parent="1" source="YbQOrl-EwVgUOmntBzL7-1" target="YbQOrl-EwVgUOmntBzL7-11">
          <mxGeometry width="50" height="50" relative="1" as="geometry" />
        </mxCell>
        <mxCell id="YbQOrl-EwVgUOmntBzL7-13" value="" style="endArrow=classic;html=1;exitX=0;exitY=0.5;entryX=1;entryY=0.5;" edge="1" parent="1" source="YbQOrl-EwVgUOmntBzL7-1" target="YbQOrl-EwVgUOmntBzL7-10">
          <mxGeometry width="50" height="50" relative="1" as="geometry" />
        </mxCell>
        <mxCell id="YbQOrl-EwVgUOmntBzL7-14" value="" style="endArrow=classic;html=1;exitX=0.5;exitY=0;entryX=0.5;entryY=1;" edge="1" parent="1" source="YbQOrl-EwVgUOmntBzL7-1" target="YbQOrl-EwVgUOmntBzL7-3">
          <mxGeometry width="50" height="50" relative="1" as="geometry" />
        </mxCell>
        <mxCell id="YbQOrl-EwVgUOmntBzL7-15" value="" style="endArrow=classic;html=1;exitX=0.5;exitY=1;entryX=0.5;entryY=0;" edge="1" parent="1" source="YbQOrl-EwVgUOmntBzL7-1" target="YbQOrl-EwVgUOmntBzL7-7">
          <mxGeometry width="50" height="50" relative="1" as="geometry" />
        </mxCell>
        <mxCell id="YbQOrl-EwVgUOmntBzL7-16" value="Legend:&#xa;Green: Foundation Phase&#xa;Orange: Growth Phase&#xa;Purple: Innovation Phase" style="rounded=0;whiteSpace=wrap;html=1;fillColor=#f5f5f5;strokeColor=#666666;align=left;spacingLeft=5;fontSize=12" vertex="1" parent="1">
          <mxGeometry x="950" y="50" width="160" height="80" as="geometry" />
        </mxCell>
      </root>
    </mxGraphModel>
  </diagram>
</mxfile>
